<?xml version="1.0" encoding="UTF-8" standalone="no"?>
<svg
   xmlns:dc="http://purl.org/dc/elements/1.1/"
   xmlns:cc="http://creativecommons.org/ns#"
   xmlns:rdf="http://www.w3.org/1999/02/22-rdf-syntax-ns#"
   xmlns:svg="http://www.w3.org/2000/svg"
   xmlns="http://www.w3.org/2000/svg"
   xmlns:sodipodi="http://sodipodi.sourceforge.net/DTD/sodipodi-0.dtd"
   xmlns:inkscape="http://www.inkscape.org/namespaces/inkscape"
   version="1.1"
   id="svg2"
   xml:space="preserve"
   width="11338.587"
   height="11338.587"
   viewBox="0 0 11338.587 11338.587"
   sodipodi:docname="troy-seeklogo.com.ai"><metadata
     id="metadata8"><rdf:RDF><cc:Work
         rdf:about=""><dc:format>image/svg+xml</dc:format><dc:type
           rdf:resource="http://purl.org/dc/dcmitype/StillImage" /></cc:Work></rdf:RDF></metadata><defs
     id="defs6"><clipPath
       clipPathUnits="userSpaceOnUse"
       id="clipPath18"><path
         d="M 0,8503.937 H 8503.937 V 0 H 0 Z"
         id="path16" /></clipPath></defs><sodipodi:namedview
     pagecolor="#ffffff"
     bordercolor="#666666"
     borderopacity="1"
     objecttolerance="10"
     gridtolerance="10"
     guidetolerance="10"
     inkscape:pageopacity="0"
     inkscape:pageshadow="2"
     inkscape:window-width="640"
     inkscape:window-height="480"
     id="namedview4" /><g
     id="g10"
     inkscape:groupmode="layer"
     inkscape:label="troy-seeklogo.com"
     transform="matrix(1.3333333,0,0,-1.3333333,0,11338.587)"><g
       id="g12"><g
         id="g14"
         clip-path="url(#clipPath18)"><g
           id="g20"
           transform="translate(7203.8975,5358.877)"><path
             d="m 0,0 c -98.812,0 -207.796,-55.097 -251.268,-154.084 l -461.89,-1058.774 -166.367,1058.774 C -899.091,-55.097 -966.349,0 -1072.805,0 h -585.144 l 500.486,-1758.382 c 9.213,-33.719 10.959,-71.111 4.215,-110.43 -26.192,-146.736 -166.367,-265.777 -313.164,-265.777 h -327.677 c -83.214,0 -138.006,-51.541 -164.801,-168.235 l -72.796,-435.757 h 577.075 c 301.061,0 654.63,151.255 890.48,569.49 L 591.345,0 Z"
             style="fill:#323e48;fill-opacity:1;fill-rule:evenodd;stroke:none"
             id="path22" /></g><g
           id="g24"
           transform="translate(1523.5166,5883.6406)"><path
             d="m 0,0 c 172.809,0 256.321,-68.944 225.914,-242.176 l -49.793,-282.217 h 397.04 l -87.489,-495.789 H 88.452 L -19.75,-1634.043 c -37.394,-213.874 174.312,-242.357 295.763,-242.357 24.204,0 44.314,0.542 58.705,1.386 l -97.121,-552.87 c -29.985,-3.191 -60.874,-7.345 -126.264,-7.345 -301.426,0 -871.635,80.743 -759.52,716.828 l 122.773,698.219 h -289.441 l 87.125,495.789 h 286.611 L -348.871,0 Z"
             style="fill:#323e48;fill-opacity:1;fill-rule:evenodd;stroke:none"
             id="path26" /></g><g
           id="g28"
           transform="translate(4859.915,5336.5288)"><path
             d="m 0,0 -102.001,-578.039 c 125.782,-64.248 211.948,-194.727 211.948,-345.439 0,-198.702 -148.965,-361.514 -340.741,-384.937 l -101.939,-577.918 c 18.001,-1.145 36.305,-1.748 54.548,-1.748 533.063,0 964.785,432.025 964.785,964.603 C 686.6,-488.023 397.459,-119.583 0,0"
             style="fill:#00adbc;fill-opacity:1;fill-rule:evenodd;stroke:none"
             id="path30" /></g><g
           id="g32"
           transform="translate(4405.8828,4067.5044)"><path
             d="m 0,0 c -125.666,63.884 -212.012,194.966 -212.012,345.498 0,197.437 149.267,361.514 340.985,384.517 l 101.817,577.976 c -18.121,1.143 -36.548,1.988 -54.67,1.988 -532.639,0 -964.603,-432.324 -964.603,-964.481 0,-435.636 289.261,-804.317 686.723,-923.898 z"
             style="fill:#00adbc;fill-opacity:1;fill-rule:evenodd;stroke:none"
             id="path34" /></g><g
           id="g36"
           transform="translate(2326.5234,5358.877)"><path
             d="m 0,0 h 341.161 c 172.871,0 256.023,-69.065 225.557,-242.356 l -37.331,-209.659 c 127.106,258.008 402.821,470.861 685.635,470.861 37.093,0 72.8,-7.346 72.8,-7.346 L 1177.57,-613.625 c 0,0 -49.492,11.501 -126.746,11.501 -150.711,0 -405.592,-47.809 -547.449,-330.987 -33.841,-69.786 -59.853,-154.686 -77.857,-256.987 l -123.435,-702.318 h -635.541 z"
             style="fill:#323e48;fill-opacity:1;fill-rule:evenodd;stroke:none"
             id="path38" /></g><g
           id="g40"
           transform="translate(7795.2754,3378.3188)"><path
             d="m 0,0 c 0,-56.42 -19.992,-104.649 -59.852,-144.21 -39.441,-39.68 -87.489,-60.032 -144.21,-60.032 -56.118,0 -104.166,20.352 -144.209,60.032 -39.739,39.561 -59.791,87.79 -59.791,144.21 0,56.237 20.052,104.346 59.791,144.327 40.043,39.621 88.091,59.611 144.209,59.611 56.721,0 104.769,-19.99 144.21,-59.611 C -19.992,104.346 0,56.237 0,0 m -32.035,0 c 0,-48.231 -16.858,-89.236 -50.576,-123.016 -33.36,-34.018 -74.244,-50.938 -121.451,-50.938 -47.085,0 -87.489,16.92 -121.145,50.938 -33.237,33.78 -49.797,74.785 -49.797,123.016 0,48.048 16.56,88.933 49.797,122.893 33.656,34.139 74.06,51.059 121.145,51.059 47.207,0 88.091,-16.92 121.451,-51.059 C -48.893,88.933 -32.035,48.048 -32.035,0 m -86.225,-111.695 h -36.247 l -51.242,91.282 h -33.719 v -91.282 h -30.888 v 223.689 h 75.93 c 19.567,0 36.247,-6.683 49.915,-19.329 13.546,-12.824 20.772,-28.781 20.772,-47.627 0,-31.069 -16.255,-51.663 -48.229,-61.416 z m -37.453,156.733 c 0,11.199 -3.729,20.593 -11.801,28.239 -7.886,7.587 -17.941,11.2 -30.344,11.2 h -41.61 V 6.02 h 41.61 c 12.403,0 22.458,3.914 30.344,10.959 8.072,7.465 11.801,16.558 11.801,28.059"
             style="fill:#323e48;fill-opacity:1;fill-rule:evenodd;stroke:none"
             id="path42" /></g></g></g></g></svg>
